<?xml version="1.0" encoding="UTF-8" standalone="no"?>
<!DOCTYPE svg PUBLIC "-//W3C//DTD SVG 1.1//EN"
 "http://www.w3.org/Graphics/SVG/1.1/DTD/svg11.dtd">
<!-- Generated by graphviz version 14.1.4 (20260321.0153)
 -->
<!-- Title: SynthesisDomainContextMap Pages: 1 -->
<svg width="2423pt" height="903pt"
 viewBox="0.00 0.00 2423.00 903.00" xmlns="http://www.w3.org/2000/svg" xmlns:xlink="http://www.w3.org/1999/xlink">
<g id="graph0" class="graph" transform="scale(1 1) rotate(0) translate(25.2 878.2)">
<title>SynthesisDomainContextMap</title>
<g id="clust1" class="cluster">
<title>cluster_platform</title>
<path fill="#eff6ff" stroke="#93c5fd" d="M20,-741C20,-741 404.68,-741 404.68,-741 410.68,-741 416.68,-747 416.68,-753 416.68,-753 416.68,-833 416.68,-833 416.68,-839 410.68,-845 404.68,-845 404.68,-845 20,-845 20,-845 14,-845 8,-839 8,-833 8,-833 8,-753 8,-753 8,-747 14,-741 20,-741"/>
<text xml:space="preserve" text-anchor="middle" x="212.34" y="-827.7" font-family="Microsoft YaHei" font-size="14.00">平台执行域</text>
</g>
<g id="clust2" class="cluster">
<title>cluster_source</title>
<path fill="#f0fdf4" stroke="#bbf7d0" d="M272.03,-612C272.03,-612 747.84,-612 747.84,-612 753.84,-612 759.84,-618 759.84,-624 759.84,-624 759.84,-721 759.84,-721 759.84,-727 753.84,-733 747.84,-733 747.84,-733 272.03,-733 272.03,-733 266.03,-733 260.03,-727 260.03,-721 260.03,-721 260.03,-624 260.03,-624 260.03,-618 266.03,-612 272.03,-612"/>
<text xml:space="preserve" text-anchor="middle" x="509.93" y="-715.7" font-family="Microsoft YaHei" font-size="14.00">源事实与 Artifact 域</text>
</g>
<g id="clust3" class="cluster">
<title>cluster_synthesis</title>
<path fill="#fffbeb" stroke="#fde68a" d="M607.31,-41C607.31,-41 2353.02,-41 2353.02,-41 2359.02,-41 2365.02,-47 2365.02,-53 2365.02,-53 2365.02,-592 2365.02,-592 2365.02,-598 2359.02,-604 2353.02,-604 2353.02,-604 607.31,-604 607.31,-604 601.31,-604 595.31,-598 595.31,-592 595.31,-592 595.31,-53 595.31,-53 595.31,-47 601.31,-41 607.31,-41"/>
<text xml:space="preserve" text-anchor="middle" x="1480.16" y="-586.7" font-family="Microsoft YaHei" font-size="14.00">Synthesis Layer</text>
</g>
<!-- workflow -->
<g id="node1" class="node">
<title>workflow</title>
<path fill="#f8fafc" stroke="#6b7280" d="M396.68,-810.51C396.68,-810.51 320.15,-810.51 320.15,-810.51 314.15,-810.51 308.15,-804.51 308.15,-798.51 308.15,-798.51 308.15,-761.49 308.15,-761.49 308.15,-755.49 314.15,-749.49 320.15,-749.49 320.15,-749.49 396.68,-749.49 396.68,-749.49 402.68,-749.49 408.68,-755.49 408.68,-761.49 408.68,-761.49 408.68,-798.51 408.68,-798.51 408.68,-804.51 402.68,-810.51 396.68,-810.51"/>
<text xml:space="preserve" text-anchor="middle" x="358.42" y="-793.35" font-family="Microsoft YaHei" font-size="12.00" fill="#111827">Workflow 骨架</text>
<text xml:space="preserve" text-anchor="middle" x="358.42" y="-776.85" font-family="Microsoft YaHei" font-size="12.00" fill="#111827">Skill Provider</text>
<text xml:space="preserve" text-anchor="middle" x="358.42" y="-760.35" font-family="Microsoft YaHei" font-size="12.00" fill="#111827">ACP Runtime</text>
</g>
<!-- derived_notes -->
<g id="node4" class="node">
<title>derived_notes</title>
<path fill="#f8fafc" stroke="#6b7280" d="M739.84,-697.76C739.84,-697.76 632.56,-697.76 632.56,-697.76 626.56,-697.76 620.56,-691.76 620.56,-685.76 620.56,-685.76 620.56,-632.24 620.56,-632.24 620.56,-626.24 626.56,-620.24 632.56,-620.24 632.56,-620.24 739.84,-620.24 739.84,-620.24 745.84,-620.24 751.84,-626.24 751.84,-632.24 751.84,-632.24 751.84,-685.76 751.84,-685.76 751.84,-691.76 745.84,-697.76 739.84,-697.76"/>
<text xml:space="preserve" text-anchor="middle" x="686.2" y="-680.6" font-family="Microsoft YaHei" font-size="12.00" fill="#111827">派生 Artifact Notes</text>
<text xml:space="preserve" text-anchor="middle" x="686.2" y="-664.1" font-family="Microsoft YaHei" font-size="12.00" fill="#111827">Digest / References</text>
<text xml:space="preserve" text-anchor="middle" x="686.2" y="-647.6" font-family="Microsoft YaHei" font-size="12.00" fill="#111827">Citation Analysis</text>
<text xml:space="preserve" text-anchor="middle" x="686.2" y="-631.1" font-family="Microsoft YaHei" font-size="12.00" fill="#111827">Matching Metadata</text>
</g>
<!-- workflow&#45;&gt;derived_notes -->
<g id="edge1" class="edge">
<title>workflow&#45;&gt;derived_notes</title>
<path fill="none" stroke="#64748b" d="M408.84,-761.36C422.04,-755.89 436.15,-749.6 448.81,-743 461.44,-736.42 462.92,-731.8 475.81,-725.75 519.17,-705.42 570.34,-688.98 611.24,-677.5"/>
<polygon fill="#64748b" stroke="#64748b" points="611.92,-680.22 618.88,-675.38 610.42,-674.82 611.92,-680.22"/>
<text xml:space="preserve" text-anchor="middle" x="526.06" y="-730.5" font-family="Microsoft YaHei" font-size="10.00" fill="#334155">生成/更新</text>
</g>
<!-- topics -->
<g id="node10" class="node">
<title>topics</title>
<path fill="#f8fafc" stroke="#6b7280" d="M2037.49,-407.76C2037.49,-407.76 1928.71,-407.76 1928.71,-407.76 1922.71,-407.76 1916.71,-401.76 1916.71,-395.76 1916.71,-395.76 1916.71,-342.24 1916.71,-342.24 1916.71,-336.24 1922.71,-330.24 1928.71,-330.24 1928.71,-330.24 2037.49,-330.24 2037.49,-330.24 2043.49,-330.24 2049.49,-336.24 2049.49,-342.24 2049.49,-342.24 2049.49,-395.76 2049.49,-395.76 2049.49,-401.76 2043.49,-407.76 2037.49,-407.76"/>
<text xml:space="preserve" text-anchor="middle" x="1983.1" y="-390.6" font-family="Microsoft YaHei" font-size="12.00" fill="#111827">Topics / Topic Graph</text>
<text xml:space="preserve" text-anchor="middle" x="1983.1" y="-374.1" font-family="Microsoft YaHei" font-size="12.00" fill="#111827">Topic Artifacts</text>
<text xml:space="preserve" text-anchor="middle" x="1983.1" y="-357.6" font-family="Microsoft YaHei" font-size="12.00" fill="#111827">Source Check</text>
<text xml:space="preserve" text-anchor="middle" x="1983.1" y="-341.1" font-family="Microsoft YaHei" font-size="12.00" fill="#111827">Discovery Hints</text>
</g>
<!-- workflow&#45;&gt;topics -->
<g id="edge2" class="edge">
<title>workflow&#45;&gt;topics</title>
<path fill="none" stroke="#64748b" d="M409.08,-777.78C472.95,-775.11 587.32,-771 685.2,-771 685.2,-771 685.2,-771 1671.69,-771 1848.84,-771 1939.11,-523.44 1969.77,-416.86"/>
<polygon fill="#64748b" stroke="#64748b" points="1972.4,-417.83 1971.89,-409.37 1967.02,-416.3 1972.4,-417.83"/>
<text xml:space="preserve" text-anchor="middle" x="1150.13" y="-775.75" font-family="Microsoft YaHei" font-size="10.00" fill="#334155">运行 topic skills</text>
</g>
<!-- host_bridge -->
<g id="node2" class="node">
<title>host_bridge</title>
<path fill="#f8fafc" stroke="#6b7280" d="M158.53,-810.51C158.53,-810.51 28,-810.51 28,-810.51 22,-810.51 16,-804.51 16,-798.51 16,-798.51 16,-761.49 16,-761.49 16,-755.49 22,-749.49 28,-749.49 28,-749.49 158.53,-749.49 158.53,-749.49 164.53,-749.49 170.53,-755.49 170.53,-761.49 170.53,-761.49 170.53,-798.51 170.53,-798.51 170.53,-804.51 164.53,-810.51 158.53,-810.51"/>
<text xml:space="preserve" text-anchor="middle" x="93.26" y="-793.35" font-family="Microsoft YaHei" font-size="12.00" fill="#111827">Host Bridge / CLI</text>
<text xml:space="preserve" text-anchor="middle" x="93.26" y="-776.85" font-family="Microsoft YaHei" font-size="12.00" fill="#111827">Capability Boundary</text>
<text xml:space="preserve" text-anchor="middle" x="93.26" y="-760.35" font-family="Microsoft YaHei" font-size="12.00" fill="#111827">Library / Artifact Facade</text>
</g>
<!-- host_bridge&#45;&gt;workflow -->
<g id="edge3" class="edge">
<title>host_bridge&#45;&gt;workflow</title>
<path fill="none" stroke="#64748b" d="M170.73,-780C211.44,-780 260.74,-780 298.46,-780"/>
<polygon fill="#64748b" stroke="#64748b" points="298.27,-782.8 306.27,-780 298.27,-777.2 298.27,-782.8"/>
<text xml:space="preserve" text-anchor="middle" x="219.28" y="-784.75" font-family="Microsoft YaHei" font-size="10.00" fill="#334155">提交/观测</text>
</g>
<!-- source_facade -->
<g id="node6" class="node">
<title>source_facade</title>
<path fill="#f8fafc" stroke="#6b7280" d="M1230.4,-248.76C1230.4,-248.76 1069.87,-248.76 1069.87,-248.76 1063.87,-248.76 1057.87,-242.76 1057.87,-236.76 1057.87,-236.76 1057.87,-183.24 1057.87,-183.24 1057.87,-177.24 1063.87,-171.24 1069.87,-171.24 1069.87,-171.24 1230.4,-171.24 1230.4,-171.24 1236.4,-171.24 1242.4,-177.24 1242.4,-183.24 1242.4,-183.24 1242.4,-236.76 1242.4,-236.76 1242.4,-242.76 1236.4,-248.76 1230.4,-248.76"/>
<text xml:space="preserve" text-anchor="middle" x="1150.13" y="-231.6" font-family="Microsoft YaHei" font-size="12.00" fill="#111827">Host Library / Artifact Facade</text>
<text xml:space="preserve" text-anchor="middle" x="1150.13" y="-215.1" font-family="Microsoft YaHei" font-size="12.00" fill="#111827">Library Index</text>
<text xml:space="preserve" text-anchor="middle" x="1150.13" y="-198.6" font-family="Microsoft YaHei" font-size="12.00" fill="#111827">Resolver Execution</text>
<text xml:space="preserve" text-anchor="middle" x="1150.13" y="-182.1" font-family="Microsoft YaHei" font-size="12.00" fill="#111827">Filtered Artifacts</text>
</g>
<!-- host_bridge&#45;&gt;source_facade -->
<g id="edge4" class="edge">
<title>host_bridge&#45;&gt;source_facade</title>
<path fill="none" stroke="#64748b" d="M98.91,-749.11C120.09,-614.02 212.7,-82 357.42,-82 357.42,-82 357.42,-82 831.59,-82 854.86,-82 968.52,-129.91 1053.25,-167.11"/>
<polygon fill="#64748b" stroke="#64748b" points="1052.04,-169.63 1060.49,-170.29 1054.29,-164.51 1052.04,-169.63"/>
<text xml:space="preserve" text-anchor="middle" x="526.06" y="-86.75" font-family="Microsoft YaHei" font-size="10.00" fill="#334155">topic workflow reads</text>
</g>
<!-- maintenance -->
<g id="node12" class="node">
<title>maintenance</title>
<path fill="#f8fafc" stroke="#6b7280" d="M1438.18,-296.51C1438.18,-296.51 1281.4,-296.51 1281.4,-296.51 1275.4,-296.51 1269.4,-290.51 1269.4,-284.51 1269.4,-284.51 1269.4,-247.49 1269.4,-247.49 1269.4,-241.49 1275.4,-235.49 1281.4,-235.49 1281.4,-235.49 1438.18,-235.49 1438.18,-235.49 1444.18,-235.49 1450.18,-241.49 1450.18,-247.49 1450.18,-247.49 1450.18,-284.51 1450.18,-284.51 1450.18,-290.51 1444.18,-296.51 1438.18,-296.51"/>
<text xml:space="preserve" text-anchor="middle" x="1359.79" y="-279.35" font-family="Microsoft YaHei" font-size="12.00" fill="#111827">Maintenance / Jobs / Debug</text>
<text xml:space="preserve" text-anchor="middle" x="1359.79" y="-262.85" font-family="Microsoft YaHei" font-size="12.00" fill="#111827">Dirty Events</text>
<text xml:space="preserve" text-anchor="middle" x="1359.79" y="-246.35" font-family="Microsoft YaHei" font-size="12.00" fill="#111827">Progress / Reconcile</text>
</g>
<!-- host_bridge&#45;&gt;maintenance -->
<g id="edge5" class="edge">
<title>host_bridge&#45;&gt;maintenance</title>
<path fill="none" stroke="#64748b" d="M96.99,-749.15C105.27,-662.04 133.61,-407.47 197.53,-206 217.4,-143.36 218.44,-122.88 260.03,-72 294.1,-30.32 303.59,0 357.42,0 357.42,0 357.42,0 962.48,0 1098.19,0 1134.45,-39.76 1242.4,-122 1280.71,-151.18 1314.04,-195.52 1335.1,-227.28"/>
<polygon fill="#64748b" stroke="#64748b" points="1332.64,-228.64 1339.35,-233.81 1337.32,-225.58 1332.64,-228.64"/>
<text xml:space="preserve" text-anchor="middle" x="686.2" y="-4.75" font-family="Microsoft YaHei" font-size="10.00" fill="#334155">debug&#45;only</text>
</g>
<!-- zotero -->
<g id="node3" class="node">
<title>zotero</title>
<path fill="#f8fafc" stroke="#6b7280" d="M436.81,-664.26C436.81,-664.26 280.03,-664.26 280.03,-664.26 274.03,-664.26 268.03,-658.26 268.03,-652.26 268.03,-652.26 268.03,-631.74 268.03,-631.74 268.03,-625.74 274.03,-619.74 280.03,-619.74 280.03,-619.74 436.81,-619.74 436.81,-619.74 442.81,-619.74 448.81,-625.74 448.81,-631.74 448.81,-631.74 448.81,-652.26 448.81,-652.26 448.81,-658.26 442.81,-664.26 436.81,-664.26"/>
<text xml:space="preserve" text-anchor="middle" x="358.42" y="-647.1" font-family="Microsoft YaHei" font-size="12.00" fill="#111827">Zotero Library</text>
<text xml:space="preserve" text-anchor="middle" x="358.42" y="-630.6" font-family="Microsoft YaHei" font-size="12.00" fill="#111827">Items / Notes / Attachments</text>
</g>
<!-- zotero&#45;&gt;derived_notes -->
<g id="edge6" class="edge">
<title>zotero&#45;&gt;derived_notes</title>
<path fill="none" stroke="#64748b" d="M449.3,-646.69C500.07,-649.34 562.76,-652.61 610.75,-655.11"/>
<polygon fill="#64748b" stroke="#64748b" points="610.5,-657.91 618.63,-655.53 610.79,-652.31 610.5,-657.91"/>
<text xml:space="preserve" text-anchor="middle" x="526.06" y="-657.77" font-family="Microsoft YaHei" font-size="10.00" fill="#334155">承载</text>
</g>
<!-- zotero&#45;&gt;source_facade -->
<g id="edge8" class="edge">
<title>zotero&#45;&gt;source_facade</title>
<path fill="none" stroke="#64748b" d="M364.44,-619.62C376.57,-569.32 411.34,-445.24 475.81,-362 516.56,-309.38 533.48,-296.37 595.31,-271.75 745.03,-212.14 934.38,-203.96 1048.4,-205.52"/>
<polygon fill="#64748b" stroke="#64748b" points="1048.28,-208.31 1056.33,-205.65 1048.37,-202.72 1048.28,-208.31"/>
<text xml:space="preserve" text-anchor="middle" x="686.2" y="-276.5" font-family="Microsoft YaHei" font-size="10.00" fill="#334155">item facts</text>
</g>
<!-- registry -->
<g id="node7" class="node">
<title>registry</title>
<path fill="#f8fafc" stroke="#6b7280" d="M1018.87,-405.76C1018.87,-405.76 904.09,-405.76 904.09,-405.76 898.09,-405.76 892.09,-399.76 892.09,-393.76 892.09,-393.76 892.09,-340.24 892.09,-340.24 892.09,-334.24 898.09,-328.24 904.09,-328.24 904.09,-328.24 1018.87,-328.24 1018.87,-328.24 1024.87,-328.24 1030.87,-334.24 1030.87,-340.24 1030.87,-340.24 1030.87,-393.76 1030.87,-393.76 1030.87,-399.76 1024.87,-405.76 1018.87,-405.76"/>
<text xml:space="preserve" text-anchor="middle" x="961.48" y="-388.6" font-family="Microsoft YaHei" font-size="12.00" fill="#111827">Paper Registry Cache</text>
<text xml:space="preserve" text-anchor="middle" x="961.48" y="-372.1" font-family="Microsoft YaHei" font-size="12.00" fill="#111827">Literature Items</text>
<text xml:space="preserve" text-anchor="middle" x="961.48" y="-355.6" font-family="Microsoft YaHei" font-size="12.00" fill="#111827">Bindings / Readiness</text>
<text xml:space="preserve" text-anchor="middle" x="961.48" y="-339.1" font-family="Microsoft YaHei" font-size="12.00" fill="#111827">Reference Facts</text>
</g>
<!-- zotero&#45;&gt;registry -->
<g id="edge7" class="edge">
<title>zotero&#45;&gt;registry</title>
<path fill="none" stroke="#64748b" d="M371.04,-619.55C400.51,-565.02 483.79,-425.06 595.31,-356.75 698.95,-293.27 747.68,-280.58 865.09,-312 875.23,-314.71 885.41,-318.79 895.14,-323.53"/>
<polygon fill="#64748b" stroke="#64748b" points="893.83,-326 902.23,-327.15 896.38,-321.02 893.83,-326"/>
<text xml:space="preserve" text-anchor="middle" x="686.2" y="-361.5" font-family="Microsoft YaHei" font-size="10.00" fill="#334155">item facts</text>
</g>
<!-- derived_notes&#45;&gt;source_facade -->
<g id="edge10" class="edge">
<title>derived_notes&#45;&gt;source_facade</title>
<path fill="none" stroke="#64748b" d="M752.06,-649.79C787.44,-642.62 830.86,-630.19 865.09,-609 958.4,-551.23 983.59,-525.04 1030.87,-426 1063.09,-358.52 1015.25,-318.5 1055.79,-256.59"/>
<polygon fill="#64748b" stroke="#64748b" points="1058,-258.32 1060.31,-250.16 1053.42,-255.09 1058,-258.32"/>
<text xml:space="preserve" text-anchor="middle" x="830.59" y="-642.57" font-family="Microsoft YaHei" font-size="10.00" fill="#334155">artifact facts</text>
</g>
<!-- derived_notes&#45;&gt;registry -->
<g id="edge9" class="edge">
<title>derived_notes&#45;&gt;registry</title>
<path fill="none" stroke="#64748b" d="M751.92,-626.79C757.95,-622.81 763.79,-618.53 769.09,-614 838.14,-555.01 898.72,-467.55 932.39,-414.08"/>
<polygon fill="#64748b" stroke="#64748b" points="934.69,-415.67 936.56,-407.4 929.94,-412.7 934.69,-415.67"/>
<text xml:space="preserve" text-anchor="middle" x="830.59" y="-589.91" font-family="Microsoft YaHei" font-size="10.00" fill="#334155">artifact facts</text>
</g>
<!-- foundation -->
<g id="node5" class="node">
<title>foundation</title>
<path fill="#f8fafc" stroke="#6b7280" d="M757.09,-452.51C757.09,-452.51 615.31,-452.51 615.31,-452.51 609.31,-452.51 603.31,-446.51 603.31,-440.51 603.31,-440.51 603.31,-403.49 603.31,-403.49 603.31,-397.49 609.31,-391.49 615.31,-391.49 615.31,-391.49 757.09,-391.49 757.09,-391.49 763.09,-391.49 769.09,-397.49 769.09,-403.49 769.09,-403.49 769.09,-440.51 769.09,-440.51 769.09,-446.51 763.09,-452.51 757.09,-452.51"/>
<text xml:space="preserve" text-anchor="middle" x="686.2" y="-435.35" font-family="Microsoft YaHei" font-size="12.00" fill="#111827">Synthesis Foundation</text>
<text xml:space="preserve" text-anchor="middle" x="686.2" y="-418.85" font-family="Microsoft YaHei" font-size="12.00" fill="#111827">SQLite Repository</text>
<text xml:space="preserve" text-anchor="middle" x="686.2" y="-402.35" font-family="Microsoft YaHei" font-size="12.00" fill="#111827">Persistence / Review State</text>
</g>
<!-- foundation&#45;&gt;source_facade -->
<g id="edge22" class="edge">
<title>foundation&#45;&gt;source_facade</title>
<path fill="none" stroke="#64748b" stroke-dasharray="1,5" d="M737.88,-391.01C778.69,-366.75 837.96,-333.03 892.09,-308 951.88,-280.35 969.34,-279.49 1030.87,-256 1036.68,-253.78 1042.64,-251.49 1048.66,-249.18"/>
<polygon fill="#64748b" stroke="#64748b" points="1049.63,-251.81 1056.08,-246.32 1047.61,-246.58 1049.63,-251.81"/>
<text xml:space="preserve" text-anchor="middle" x="830.59" y="-361.02" font-family="Microsoft YaHei" font-size="10.00" fill="#334155">service facade</text>
</g>
<!-- foundation&#45;&gt;registry -->
<g id="edge21" class="edge">
<title>foundation&#45;&gt;registry</title>
<path fill="none" stroke="#64748b" stroke-dasharray="1,5" d="M769.56,-405.42C805.34,-398.22 847.05,-389.83 882.34,-382.73"/>
<polygon fill="#64748b" stroke="#64748b" points="882.86,-385.48 890.15,-381.15 881.76,-379.99 882.86,-385.48"/>
<text xml:space="preserve" text-anchor="middle" x="830.59" y="-404.18" font-family="Microsoft YaHei" font-size="10.00" fill="#334155">owns storage</text>
</g>
<!-- citation -->
<g id="node8" class="node">
<title>citation</title>
<path fill="#f8fafc" stroke="#6b7280" d="M1727.71,-484.51C1727.71,-484.51 1613.68,-484.51 1613.68,-484.51 1607.68,-484.51 1601.68,-478.51 1601.68,-472.51 1601.68,-472.51 1601.68,-435.49 1601.68,-435.49 1601.68,-429.49 1607.68,-423.49 1613.68,-423.49 1613.68,-423.49 1727.71,-423.49 1727.71,-423.49 1733.71,-423.49 1739.71,-429.49 1739.71,-435.49 1739.71,-435.49 1739.71,-472.51 1739.71,-472.51 1739.71,-478.51 1733.71,-484.51 1727.71,-484.51"/>
<text xml:space="preserve" text-anchor="middle" x="1670.69" y="-467.35" font-family="Microsoft YaHei" font-size="12.00" fill="#111827">Reference Resolution</text>
<text xml:space="preserve" text-anchor="middle" x="1670.69" y="-450.85" font-family="Microsoft YaHei" font-size="12.00" fill="#111827">Citation Graph</text>
<text xml:space="preserve" text-anchor="middle" x="1670.69" y="-434.35" font-family="Microsoft YaHei" font-size="12.00" fill="#111827">Metrics / Layout</text>
</g>
<!-- foundation&#45;&gt;citation -->
<g id="edge23" class="edge">
<title>foundation&#45;&gt;citation</title>
<path fill="none" stroke="#64748b" stroke-dasharray="1,5" d="M769.28,-424.67C955.93,-430.75 1410.1,-445.54 1592.24,-451.48"/>
<polygon fill="#64748b" stroke="#64748b" points="1591.89,-454.27 1599.98,-451.73 1592.08,-448.67 1591.89,-454.27"/>
<text xml:space="preserve" text-anchor="middle" x="1150.13" y="-444.59" font-family="Microsoft YaHei" font-size="10.00" fill="#334155">owns storage</text>
</g>
<!-- tags -->
<g id="node9" class="node">
<title>tags</title>
<path fill="#f8fafc" stroke="#6b7280" d="M1711.58,-152.51C1711.58,-152.51 1629.8,-152.51 1629.8,-152.51 1623.8,-152.51 1617.8,-146.51 1617.8,-140.51 1617.8,-140.51 1617.8,-103.49 1617.8,-103.49 1617.8,-97.49 1623.8,-91.49 1629.8,-91.49 1629.8,-91.49 1711.58,-91.49 1711.58,-91.49 1717.58,-91.49 1723.58,-97.49 1723.58,-103.49 1723.58,-103.49 1723.58,-140.51 1723.58,-140.51 1723.58,-146.51 1717.58,-152.51 1711.58,-152.51"/>
<text xml:space="preserve" text-anchor="middle" x="1670.69" y="-135.35" font-family="Microsoft YaHei" font-size="12.00" fill="#111827">Tag Vocabulary</text>
<text xml:space="preserve" text-anchor="middle" x="1670.69" y="-118.85" font-family="Microsoft YaHei" font-size="12.00" fill="#111827">Controlled Tags</text>
<text xml:space="preserve" text-anchor="middle" x="1670.69" y="-102.35" font-family="Microsoft YaHei" font-size="12.00" fill="#111827">Validation</text>
</g>
<!-- foundation&#45;&gt;tags -->
<g id="edge24" class="edge">
<title>foundation&#45;&gt;tags</title>
<path fill="none" stroke="#64748b" stroke-dasharray="1,5" d="M758.08,-391.09C762.05,-388 765.77,-384.64 769.09,-381 791.29,-356.68 775.25,-337.5 796.09,-312 818.17,-284.98 1017.67,-159.65 1057.87,-147.75 1168.02,-115.15 1460.21,-145.7 1574.68,-136 1585.58,-135.08 1597.14,-133.71 1608.3,-132.18"/>
<polygon fill="#64748b" stroke="#64748b" points="1608.53,-134.97 1616.06,-131.08 1607.74,-129.43 1608.53,-134.97"/>
<text xml:space="preserve" text-anchor="middle" x="1150.13" y="-152.5" font-family="Microsoft YaHei" font-size="10.00" fill="#334155">owns storage</text>
</g>
<!-- foundation&#45;&gt;topics -->
<g id="edge25" class="edge">
<title>foundation&#45;&gt;topics</title>
<path fill="none" stroke="#64748b" stroke-dasharray="1,5" d="M769.49,-434.51C778.46,-435.75 787.46,-436.94 796.09,-438 912.13,-452.28 941.39,-453.83 1057.87,-464 1209.09,-477.21 1590.18,-531.1 1739.71,-505 1809.51,-492.82 1828.78,-487.17 1889.71,-451 1906.67,-440.93 1923.36,-427.52 1937.8,-414.46"/>
<polygon fill="#64748b" stroke="#64748b" points="1939.6,-416.61 1943.58,-409.12 1935.8,-412.49 1939.6,-416.61"/>
<text xml:space="preserve" text-anchor="middle" x="1359.79" y="-507.95" font-family="Microsoft YaHei" font-size="10.00" fill="#334155">owns storage</text>
</g>
<!-- concepts -->
<g id="node11" class="node">
<title>concepts</title>
<path fill="#f8fafc" stroke="#6b7280" d="M2345.02,-406.76C2345.02,-406.76 2247.49,-406.76 2247.49,-406.76 2241.49,-406.76 2235.49,-400.76 2235.49,-394.76 2235.49,-394.76 2235.49,-341.24 2235.49,-341.24 2235.49,-335.24 2241.49,-329.24 2247.49,-329.24 2247.49,-329.24 2345.02,-329.24 2345.02,-329.24 2351.02,-329.24 2357.02,-335.24 2357.02,-341.24 2357.02,-341.24 2357.02,-394.76 2357.02,-394.76 2357.02,-400.76 2351.02,-406.76 2345.02,-406.76"/>
<text xml:space="preserve" text-anchor="middle" x="2296.25" y="-389.6" font-family="Microsoft YaHei" font-size="12.00" fill="#111827">Concept KB</text>
<text xml:space="preserve" text-anchor="middle" x="2296.25" y="-373.1" font-family="Microsoft YaHei" font-size="12.00" fill="#111827">Concepts / Senses</text>
<text xml:space="preserve" text-anchor="middle" x="2296.25" y="-356.6" font-family="Microsoft YaHei" font-size="12.00" fill="#111827">Aliases / Links</text>
<text xml:space="preserve" text-anchor="middle" x="2296.25" y="-340.1" font-family="Microsoft YaHei" font-size="12.00" fill="#111827">Overlay Facade</text>
</g>
<!-- foundation&#45;&gt;concepts -->
<g id="edge26" class="edge">
<title>foundation&#45;&gt;concepts</title>
<path fill="none" stroke="#64748b" stroke-dasharray="1,5" d="M769.57,-446.6C778.48,-448.91 787.45,-451.1 796.09,-453 1271.04,-557.33 1418.92,-607.73 1889.71,-486 2008.65,-455.25 2145.61,-414.2 2226.06,-389.51"/>
<polygon fill="#64748b" stroke="#64748b" points="2226.83,-392.21 2233.66,-387.18 2225.19,-386.85 2226.83,-392.21"/>
<text xml:space="preserve" text-anchor="middle" x="1525.93" y="-560.69" font-family="Microsoft YaHei" font-size="10.00" fill="#334155">owns storage</text>
</g>
<!-- source_facade&#45;&gt;topics -->
<g id="edge13" class="edge">
<title>source_facade&#45;&gt;topics</title>
<path fill="none" stroke="#64748b" d="M1242.81,-206.19C1302.19,-205.04 1381.06,-205.97 1450.18,-215 1549.96,-228.04 1795.12,-289.67 1889.71,-324 1895.57,-326.13 1901.55,-328.51 1907.51,-331.04"/>
<polygon fill="#64748b" stroke="#64748b" points="1906.37,-333.6 1914.82,-334.24 1908.61,-328.47 1906.37,-333.6"/>
<text xml:space="preserve" text-anchor="middle" x="1525.93" y="-242.55" font-family="Microsoft YaHei" font-size="10.00" fill="#334155">primary topic inputs</text>
</g>
<!-- registry&#45;&gt;citation -->
<g id="edge11" class="edge">
<title>registry&#45;&gt;citation</title>
<path fill="none" stroke="#64748b" d="M1031.33,-370.71C1168.81,-378.5 1472.86,-397.79 1574.68,-421 1580.51,-422.33 1586.49,-423.89 1592.46,-425.61"/>
<polygon fill="#64748b" stroke="#64748b" points="1591.28,-428.18 1599.74,-427.78 1592.88,-422.81 1591.28,-428.18"/>
<text xml:space="preserve" text-anchor="middle" x="1359.79" y="-406.69" font-family="Microsoft YaHei" font-size="10.00" fill="#334155">references / identities</text>
</g>
<!-- registry&#45;&gt;maintenance -->
<g id="edge12" class="edge">
<title>registry&#45;&gt;maintenance</title>
<path fill="none" stroke="#64748b" d="M1001.4,-327.85C1017.53,-314.02 1037.27,-299.9 1057.87,-291.75 1121.99,-266.39 1199.63,-260.29 1259.99,-260.35"/>
<polygon fill="#64748b" stroke="#64748b" points="1259.62,-263.15 1267.63,-260.4 1259.65,-257.55 1259.62,-263.15"/>
<text xml:space="preserve" text-anchor="middle" x="1150.13" y="-296.5" font-family="Microsoft YaHei" font-size="10.00" fill="#334155">known DB papers</text>
</g>
<!-- citation&#45;&gt;topics -->
<g id="edge17" class="edge">
<title>citation&#45;&gt;topics</title>
<path fill="none" stroke="#64748b" stroke-dasharray="5,2" d="M1740.2,-435.24C1789.72,-421.68 1856.57,-403.38 1907.45,-389.44"/>
<polygon fill="#64748b" stroke="#64748b" points="1907.99,-392.2 1914.97,-387.38 1906.51,-386.8 1907.99,-392.2"/>
<text xml:space="preserve" text-anchor="middle" x="1828.21" y="-431.26" font-family="Microsoft YaHei" font-size="10.00" fill="#334155">optional graph metrics</text>
</g>
<!-- tags&#45;&gt;topics -->
<g id="edge14" class="edge">
<title>tags&#45;&gt;topics</title>
<path fill="none" stroke="#64748b" d="M1723.99,-132.15C1771.7,-143.64 1841.86,-166.4 1889.71,-207.75 1924.93,-238.18 1949.8,-285.53 1964.79,-321.06"/>
<polygon fill="#64748b" stroke="#64748b" points="1962.19,-322.08 1967.82,-328.42 1967.37,-319.96 1962.19,-322.08"/>
<text xml:space="preserve" text-anchor="middle" x="1828.21" y="-212.5" font-family="Microsoft YaHei" font-size="10.00" fill="#334155">topic discovery / filtering</text>
</g>
<!-- topics&#45;&gt;concepts -->
<g id="edge15" class="edge">
<title>topics&#45;&gt;concepts</title>
<path fill="none" stroke="#64748b" d="M2049.92,-341.41C2058.72,-338.67 2067.73,-336.32 2076.49,-334.75 2134.23,-324.39 2150.8,-324.08 2208.49,-334.75 2214.46,-335.85 2220.55,-337.35 2226.59,-339.1"/>
<polygon fill="#64748b" stroke="#64748b" points="2225.48,-341.69 2233.95,-341.39 2227.14,-336.34 2225.48,-341.69"/>
<text xml:space="preserve" text-anchor="middle" x="2142.49" y="-339.5" font-family="Microsoft YaHei" font-size="10.00" fill="#334155">ACL: concept proposal DTO</text>
</g>
<!-- concepts&#45;&gt;topics -->
<g id="edge16" class="edge">
<title>concepts&#45;&gt;topics</title>
<path fill="none" stroke="#64748b" stroke-dasharray="5,2" d="M2235.01,-368.19C2184.84,-368.35 2113.13,-368.59 2059.22,-368.76"/>
<polygon fill="#64748b" stroke="#64748b" points="2059.21,-365.96 2051.22,-368.78 2059.23,-371.56 2059.21,-365.96"/>
<text xml:space="preserve" text-anchor="middle" x="2142.49" y="-373.43" font-family="Microsoft YaHei" font-size="10.00" fill="#334155">ACL: optional overlay DTO</text>
</g>
<!-- maintenance&#45;&gt;registry -->
<g id="edge18" class="edge">
<title>maintenance&#45;&gt;registry</title>
<path fill="none" stroke="#64748b" d="M1286.55,-296.91C1272.09,-302.42 1256.89,-307.75 1242.4,-312 1205.33,-322.87 1109.5,-340.91 1040.28,-353.35"/>
<polygon fill="#64748b" stroke="#64748b" points="1040,-350.56 1032.62,-354.73 1040.99,-356.07 1040,-350.56"/>
<text xml:space="preserve" text-anchor="middle" x="1150.13" y="-353.66" font-family="Microsoft YaHei" font-size="10.00" fill="#334155">workers</text>
</g>
<!-- maintenance&#45;&gt;citation -->
<g id="edge19" class="edge">
<title>maintenance&#45;&gt;citation</title>
<path fill="none" stroke="#64748b" d="M1407.66,-296.96C1428.5,-310.11 1453.62,-325.11 1477.18,-337 1518.96,-358.09 1534.42,-352.9 1574.68,-376.75 1594.04,-388.22 1613.64,-403.42 1629.97,-417.3"/>
<polygon fill="#64748b" stroke="#64748b" points="1627.72,-419.06 1635.61,-422.16 1631.38,-414.82 1627.72,-419.06"/>
<text xml:space="preserve" text-anchor="middle" x="1525.93" y="-381.5" font-family="Microsoft YaHei" font-size="10.00" fill="#334155">workers</text>
</g>
<!-- maintenance&#45;&gt;topics -->
<g id="edge20" class="edge">
<title>maintenance&#45;&gt;topics</title>
<path fill="none" stroke="#64748b" stroke-dasharray="5,2" d="M1450.47,-280.87C1573.5,-301.26 1792.38,-337.55 1907.15,-356.58"/>
<polygon fill="#64748b" stroke="#64748b" points="1906.4,-359.29 1914.75,-357.83 1907.32,-353.76 1906.4,-359.29"/>
<text xml:space="preserve" text-anchor="middle" x="1670.69" y="-332.49" font-family="Microsoft YaHei" font-size="10.00" fill="#334155">explicit source check</text>
</g>
<!-- sync -->
<g id="node13" class="node">
<title>sync</title>
<path fill="#f8fafc" stroke="#6b7280" d="M1420.18,-111.26C1420.18,-111.26 1299.4,-111.26 1299.4,-111.26 1293.4,-111.26 1287.4,-105.26 1287.4,-99.26 1287.4,-99.26 1287.4,-78.74 1287.4,-78.74 1287.4,-72.74 1293.4,-66.74 1299.4,-66.74 1299.4,-66.74 1420.18,-66.74 1420.18,-66.74 1426.18,-66.74 1432.18,-72.74 1432.18,-78.74 1432.18,-78.74 1432.18,-99.26 1432.18,-99.26 1432.18,-105.26 1426.18,-111.26 1420.18,-111.26"/>
<text xml:space="preserve" text-anchor="middle" x="1359.79" y="-94.1" font-family="Microsoft YaHei" font-size="12.00" fill="#111827">Sync / Import / Export</text>
<text xml:space="preserve" text-anchor="middle" x="1359.79" y="-77.6" font-family="Microsoft YaHei" font-size="12.00" fill="#111827">Checkpoint / Git Sync</text>
</g>
<!-- sync&#45;&gt;tags -->
<g id="edge27" class="edge">
<title>sync&#45;&gt;tags</title>
<path fill="none" stroke="#64748b" stroke-dasharray="5,2" d="M1432.44,-96.65C1485.79,-102.35 1557.87,-110.05 1608.53,-115.47"/>
<polygon fill="#64748b" stroke="#64748b" points="1607.97,-118.22 1616.23,-116.29 1608.57,-112.65 1607.97,-118.22"/>
<text xml:space="preserve" text-anchor="middle" x="1525.93" y="-116.08" font-family="Microsoft YaHei" font-size="10.00" fill="#334155">canonical assets</text>
</g>
<!-- sync&#45;&gt;topics -->
<g id="edge28" class="edge">
<title>sync&#45;&gt;topics</title>
<path fill="none" stroke="#64748b" stroke-dasharray="5,2" d="M1415.32,-111.73C1434.75,-119.65 1456.86,-128.43 1477.18,-136 1522.57,-152.91 1848.57,-251.42 1889.71,-277 1909.56,-289.34 1928.42,-306.69 1943.87,-323.01"/>
<polygon fill="#64748b" stroke="#64748b" points="1941.76,-324.84 1949.25,-328.81 1945.86,-321.04 1941.76,-324.84"/>
<text xml:space="preserve" text-anchor="middle" x="1670.69" y="-223.96" font-family="Microsoft YaHei" font-size="10.00" fill="#334155">canonical assets</text>
</g>
<!-- sync&#45;&gt;concepts -->
<g id="edge29" class="edge">
<title>sync&#45;&gt;concepts</title>
<path fill="none" stroke="#64748b" stroke-dasharray="5,2" d="M1432.5,-76.95C1509.06,-66.09 1633.68,-54.2 1739.71,-71 1942.69,-103.16 2147.01,-248.13 2241.34,-322.97"/>
<polygon fill="#64748b" stroke="#64748b" points="2239.58,-325.15 2247.57,-327.95 2243.07,-320.77 2239.58,-325.15"/>
<text xml:space="preserve" text-anchor="middle" x="1828.21" y="-116.1" font-family="Microsoft YaHei" font-size="10.00" fill="#334155">canonical assets</text>
</g>
</g>
</svg>
