<?plantuml 1.2026.2?><svg xmlns="http://www.w3.org/2000/svg" xmlns:xlink="http://www.w3.org/1999/xlink" contentStyleType="text/css" data-diagram-type="DESCRIPTION" height="978px" preserveAspectRatio="none" style="width:3486px;height:978px;" version="1.1" viewBox="0 0 3486 978" width="3486px" zoomAndPan="magnify"><title>Zotero Skills / Synthesis Domain Dependencies</title><defs/><g><g class="title" data-source-line="1"><text fill="#000000" font-family="'Microsoft YaHei'" font-size="14" font-weight="bold" lengthAdjust="spacing" textLength="331.502" x="1570.249" y="24.8135">Zotero Skills / Synthesis Domain Dependencies</text></g><!--cluster Platform--><g class="cluster" data-qualified-name="Platform" data-source-line="12" id="ent0002"><path d="M8.5,805.9775 L79.5,805.9775 A3.75,3.75 0 0 1 82,808.4775 L89,830.4551 L522.5,830.4551 A2.5,2.5 0 0 1 525,832.9551 L525,969.4775 A2.5,2.5 0 0 1 522.5,971.9775 L8.5,971.9775 A2.5,2.5 0 0 1 6,969.4775 L6,808.4775 A2.5,2.5 0 0 1 8.5,805.9775" fill="#EFF6FF" style="stroke:#94A3B8;stroke-width:1.5;"/><line style="stroke:#94A3B8;stroke-width:1.5;" x1="6" x2="89" y1="830.4551" y2="830.4551"/><text fill="#000000" font-family="'Microsoft YaHei'" font-size="14" font-weight="bold" lengthAdjust="spacing" textLength="70" x="10" y="822.791">&#24179;&#21488;&#25191;&#34892;&#22495;</text></g><!--cluster Source--><g class="cluster" data-qualified-name="Source" data-source-line="18" id="ent0006"><path d="M345,674.9775 L402,674.9775 A3.75,3.75 0 0 1 404.5,677.4775 L411.5,699.4551 L908,699.4551 A2.5,2.5 0 0 1 910.5,701.9551 L910.5,779.4775 A2.5,2.5 0 0 1 908,781.9775 L345,781.9775 A2.5,2.5 0 0 1 342.5,779.4775 L342.5,677.4775 A2.5,2.5 0 0 1 345,674.9775" fill="#F0FDF4" style="stroke:#94A3B8;stroke-width:1.5;"/><line style="stroke:#94A3B8;stroke-width:1.5;" x1="342.5" x2="411.5" y1="699.4551" y2="699.4551"/><text fill="#000000" font-family="'Microsoft YaHei'" font-size="14" font-weight="bold" lengthAdjust="spacing" textLength="56" x="346.5" y="691.791">&#28304;&#20107;&#23454;&#22495;</text></g><!--cluster Synthesis--><g class="cluster" data-qualified-name="Synthesis" data-source-line="23" id="ent0009"><path d="M691.5,175.9775 L801.0137,175.9775 A3.75,3.75 0 0 1 803.5137,178.4775 L810.5137,200.4551 L3476.5,200.4551 A2.5,2.5 0 0 1 3479,202.9551 L3479,648.4775 A2.5,2.5 0 0 1 3476.5,650.9775 L691.5,650.9775 A2.5,2.5 0 0 1 689,648.4775 L689,178.4775 A2.5,2.5 0 0 1 691.5,175.9775" fill="#FFFBEB" style="stroke:#94A3B8;stroke-width:1.5;"/><line style="stroke:#94A3B8;stroke-width:1.5;" x1="689" x2="810.5137" y1="200.4551" y2="200.4551"/><text fill="#000000" font-family="'Microsoft YaHei'" font-size="14" font-weight="bold" lengthAdjust="spacing" textLength="108.5137" x="693" y="192.791">Synthesis Layer</text></g><!--entity Workflow--><g class="entity" data-qualified-name="Platform.Workflow" data-source-line="13" id="ent0003"><rect fill="#F1F1F1" height="38.4775" rx="2.5" ry="2.5" style="stroke:#181818;stroke-width:0.5;" width="186.0654" x="323" y="863.9775"/><text fill="#000000" font-family="'Microsoft YaHei'" font-size="14" lengthAdjust="spacing" textLength="166.0654" x="333" y="888.791">Workflow / Skill Provider</text></g><!--entity ACP--><g class="entity" data-qualified-name="Platform.ACP" data-source-line="14" id="ent0004"><rect fill="#F1F1F1" height="38.4775" rx="2.5" ry="2.5" style="stroke:#181818;stroke-width:0.5;" width="108.3203" x="35" y="915.9775"/><text fill="#000000" font-family="'Microsoft YaHei'" font-size="14" lengthAdjust="spacing" textLength="88.3203" x="45" y="940.791">ACP Runtime</text></g><!--entity Bridge--><g class="entity" data-qualified-name="Platform.Bridge" data-source-line="15" id="ent0005"><rect fill="#F1F1F1" height="38.4775" rx="2.5" ry="2.5" style="stroke:#181818;stroke-width:0.5;" width="134.208" x="22" y="842.9775"/><text fill="#000000" font-family="'Microsoft YaHei'" font-size="14" lengthAdjust="spacing" textLength="114.208" x="32" y="867.791">Host Bridge / CLI</text></g><!--entity Zotero--><g class="entity" data-qualified-name="Source.Zotero" data-source-line="19" id="ent0007"><rect fill="#F1F1F1" height="38.4775" rx="2.5" ry="2.5" style="stroke:#181818;stroke-width:0.5;" width="114.8213" x="358.5" y="711.9775"/><text fill="#000000" font-family="'Microsoft YaHei'" font-size="14" lengthAdjust="spacing" textLength="94.8213" x="368.5" y="736.791">Zotero Library</text></g><!--entity Notes--><g class="entity" data-qualified-name="Source.Notes" data-source-line="20" id="ent0008"><rect fill="#F1F1F1" height="38.4775" rx="2.5" ry="2.5" style="stroke:#181818;stroke-width:0.5;" width="169.0986" x="725.5" y="711.9775"/><text fill="#000000" font-family="'Microsoft YaHei'" font-size="14" lengthAdjust="spacing" textLength="149.0986" x="735.5" y="736.791">Derived Artifact Notes</text></g><!--entity Foundation--><g class="entity" data-qualified-name="Synthesis.Foundation" data-source-line="24" id="ent0010"><rect fill="#F1F1F1" height="38.4775" rx="2.5" ry="2.5" style="stroke:#181818;stroke-width:0.5;" width="183.0234" x="718.5" y="360.9775"/><text fill="#000000" font-family="'Microsoft YaHei'" font-size="14" lengthAdjust="spacing" textLength="163.0234" x="728.5" y="385.791">Foundation / Repository</text></g><!--entity SourceFacade--><g class="entity" data-qualified-name="Synthesis.SourceFacade" data-source-line="25" id="ent0011"><rect fill="#F1F1F1" height="38.4775" rx="2.5" ry="2.5" style="stroke:#181818;stroke-width:0.5;" width="215.4668" x="1705.5" y="596.9775"/><text fill="#000000" font-family="'Microsoft YaHei'" font-size="14" lengthAdjust="spacing" textLength="195.4668" x="1715.5" y="621.791">Host Library / Artifact Facade</text></g><!--entity Registry--><g class="entity" data-qualified-name="Synthesis.Registry" data-source-line="26" id="ent0012"><rect fill="#F1F1F1" height="38.4775" rx="2.5" ry="2.5" style="stroke:#181818;stroke-width:0.5;" width="161.7227" x="1350" y="528.9775"/><text fill="#000000" font-family="'Microsoft YaHei'" font-size="14" lengthAdjust="spacing" textLength="141.7227" x="1360" y="553.791">Paper Registry Cache</text></g><!--entity Resolver--><g class="entity" data-qualified-name="Synthesis.Resolver" data-source-line="27" id="ent0013"><rect fill="#F1F1F1" height="38.4775" rx="2.5" ry="2.5" style="stroke:#181818;stroke-width:0.5;" width="162.1875" x="1994.5" y="522.9775"/><text fill="#000000" font-family="'Microsoft YaHei'" font-size="14" lengthAdjust="spacing" textLength="142.1875" x="2004.5" y="547.791">Reference Resolution</text></g><!--entity Graph--><g class="entity" data-qualified-name="Synthesis.Graph" data-source-line="28" id="ent0014"><rect fill="#F1F1F1" height="38.4775" rx="2.5" ry="2.5" style="stroke:#181818;stroke-width:0.5;" width="117.7129" x="2514.5" y="470.9775"/><text fill="#000000" font-family="'Microsoft YaHei'" font-size="14" lengthAdjust="spacing" textLength="97.7129" x="2524.5" y="495.791">Citation Graph</text></g><!--entity Tags--><g class="entity" data-qualified-name="Synthesis.Tags" data-source-line="29" id="ent0015"><rect fill="#F1F1F1" height="38.4775" rx="2.5" ry="2.5" style="stroke:#181818;stroke-width:0.5;" width="123.7764" x="2511.5" y="286.9775"/><text fill="#000000" font-family="'Microsoft YaHei'" font-size="14" lengthAdjust="spacing" textLength="103.7764" x="2521.5" y="311.791">Tag Vocabulary</text></g><!--entity Topics--><g class="entity" data-qualified-name="Synthesis.Topics" data-source-line="30" id="ent0016"><rect fill="#F1F1F1" height="38.4775" rx="2.5" ry="2.5" style="stroke:#181818;stroke-width:0.5;" width="159.1729" x="2994" y="378.9775"/><text fill="#000000" font-family="'Microsoft YaHei'" font-size="14" lengthAdjust="spacing" textLength="139.1729" x="3004" y="403.791">Topics / Topic Graph</text></g><!--entity Concepts--><g class="entity" data-qualified-name="Synthesis.Concepts" data-source-line="31" id="ent0017"><rect fill="#F1F1F1" height="38.4775" rx="2.5" ry="2.5" style="stroke:#181818;stroke-width:0.5;" width="97.8271" x="3365" y="252.9775"/><text fill="#000000" font-family="'Microsoft YaHei'" font-size="14" lengthAdjust="spacing" textLength="77.8271" x="3375" y="277.791">Concept KB</text></g><!--entity Jobs--><g class="entity" data-qualified-name="Synthesis.Jobs" data-source-line="32" id="ent0018"><rect fill="#F1F1F1" height="38.4775" rx="2.5" ry="2.5" style="stroke:#181818;stroke-width:0.5;" width="210.415" x="705" y="539.9775"/><text fill="#000000" font-family="'Microsoft YaHei'" font-size="14" lengthAdjust="spacing" textLength="190.415" x="715" y="564.791">Maintenance / Jobs / Debug</text></g><!--entity Sync--><g class="entity" data-qualified-name="Synthesis.Sync" data-source-line="33" id="ent0019"><rect fill="#F1F1F1" height="38.4775" rx="2.5" ry="2.5" style="stroke:#181818;stroke-width:0.5;" width="168.5039" x="1991" y="286.9775"/><text fill="#000000" font-family="'Microsoft YaHei'" font-size="14" lengthAdjust="spacing" textLength="148.5039" x="2001" y="311.791">Sync / Import / Export</text></g><g class="entity" data-qualified-name="GMN51" data-source-line="74" id="ent0052"><path d="M1665,63.9775 L1665,159.7661 L1961.4946,159.7661 L1961.4946,73.9775 L1951.4946,63.9775 L1665,63.9775" fill="#FEFFDD" style="stroke:#181818;stroke-width:0.5;"/><path d="M1951.4946,63.9775 L1951.4946,73.9775 L1961.4946,73.9775 L1951.4946,63.9775" fill="#FEFFDD" style="stroke:#181818;stroke-width:1;"/><text fill="#000000" font-family="'Microsoft YaHei'" font-size="13" lengthAdjust="spacing" textLength="207.543" x="1671" y="82.7329">Topic create/update &#30340;&#20027;&#36755;&#20837;&#26469;&#33258;</text><text fill="#000000" font-family="'Microsoft YaHei'" font-size="13" lengthAdjust="spacing" textLength="194.5049" x="1671" y="99.8906">Host Library / Artifact Facade&#65306;</text><text fill="#000000" font-family="'Microsoft YaHei'" font-size="13" lengthAdjust="spacing" textLength="190.5757" x="1671" y="117.0483">library index&#12289;resolver result&#12289;</text><text fill="#000000" font-family="'Microsoft YaHei'" font-size="13" lengthAdjust="spacing" textLength="275.4946" x="1671" y="134.2061">filtered digest/references/citation-analysis&#12290;</text><text fill="#000000" font-family="'Microsoft YaHei'" font-size="13" lengthAdjust="spacing" textLength="258.6987" x="1671" y="151.3638">&#23427;&#19981;&#26159; registry cache rebuild &#30340;&#23436;&#25104;&#29366;&#24577;&#12290;</text></g><g class="entity" data-qualified-name="GMN54" data-source-line="82" id="ent0055"><path d="M1227,45.4775 L1227,106.9507 A0,0 0 0 0 1227,106.9507 L1427,106.9507 L1431,528.6175 L1435,106.9507 L1634.7183,106.9507 A0,0 0 0 0 1634.7183,106.9507 L1634.7183,55.4775 L1624.7183,45.4775 L1227,45.4775 A0,0 0 0 0 1227,45.4775" fill="#FEFFDD" style="stroke:#181818;stroke-width:0.5;"/><path d="M1624.7183,45.4775 L1624.7183,55.4775 L1634.7183,55.4775 L1624.7183,45.4775" fill="#FEFFDD" style="stroke:#181818;stroke-width:0.5;"/><text fill="#000000" font-family="'Microsoft YaHei'" font-size="13" lengthAdjust="spacing" textLength="386.7183" x="1233" y="64.2329">Paper Registry Cache &#26159; registry/citation graph &#30340;&#36816;&#34892;&#24577;&#32531;&#23384;&#65306;</text><text fill="#000000" font-family="'Microsoft YaHei'" font-size="13" lengthAdjust="spacing" textLength="225.7354" x="1233" y="81.3906">&#23427;&#35268;&#25972;&#22806;&#37096; item/note/artifact facts&#65292;</text><text fill="#000000" font-family="'Microsoft YaHei'" font-size="13" lengthAdjust="spacing" textLength="377.8506" x="1233" y="98.5483">&#20294;&#19981;&#26159;&#20840;&#23616; Synthesis SSOT&#65292;&#20063;&#19981;&#39537;&#21160; topic artifact lifecycle&#12290;</text></g><g class="entity" data-qualified-name="GMN57" data-source-line="88" id="ent0058"><path d="M2399,98.4775 L2399,159.9507 L2748.3325,159.9507 L2748.3325,108.4775 L2738.3325,98.4775 L2399,98.4775" fill="#FEFFDD" style="stroke:#181818;stroke-width:0.5;"/><path d="M2738.3325,98.4775 L2738.3325,108.4775 L2748.3325,108.4775 L2738.3325,98.4775" fill="#FEFFDD" style="stroke:#181818;stroke-width:1;"/><text fill="#000000" font-family="'Microsoft YaHei'" font-size="13" lengthAdjust="spacing" textLength="328.3325" x="2405" y="117.2329">Citation Graph &#28040;&#36153; Registry Cache / Resolver facts&#12290;</text><text fill="#000000" font-family="'Microsoft YaHei'" font-size="13" lengthAdjust="spacing" textLength="242.2202" x="2405" y="134.3906">&#40664;&#35748; UI &#21482;&#23637;&#31034;&#24211;&#20869;&#20114;&#24341;&#19982;&#20849;&#20139;&#22806;&#37096;&#24341;&#29992;&#65307;</text><text fill="#000000" font-family="'Microsoft YaHei'" font-size="13" lengthAdjust="spacing" textLength="231.3657" x="2405" y="151.5483">&#21333;&#20837;&#24230;&#22806;&#37096;&#24341;&#29992;&#26159; hover-only &#23637;&#31034;&#23618;&#12290;</text></g><!--link Bridge to Workflow--><g class="link" data-entity-1="ent0005" data-entity-2="ent0003" data-link-type="dependency" data-source-line="36" id="lnk20"><path d="M156.16,866.2475 C204.14,869.3575 263.6625,873.2008 316.7725,876.6308" fill="none" id="Bridge-to-Workflow" style="stroke:#181818;stroke-width:1;"/><polygon fill="#181818" points="322.76,877.0175,314.0365,872.4458,317.7704,876.6953,313.5209,880.4292,322.76,877.0175" style="stroke:#181818;stroke-width:1;"/><text fill="#000000" font-family="'Microsoft YaHei'" font-size="13" lengthAdjust="spacing" textLength="100.5913" x="189.5" y="863.7329">submit / inspect</text></g><!--link ACP to Workflow--><g class="link" data-entity-1="ent0004" data-entity-2="ent0003" data-link-type="dependency" data-source-line="37" id="lnk21"><path d="M143.3,926.4475 C191.93,918.6675 258.8954,907.9557 316.9454,898.6657" fill="none" id="ACP-to-Workflow" style="stroke:#181818;stroke-width:1;"/><polygon fill="#181818" points="322.87,897.7175,313.351,895.19,317.9328,898.5077,314.6152,903.0895,322.87,897.7175" style="stroke:#181818;stroke-width:1;"/><text fill="#000000" font-family="'Microsoft YaHei'" font-size="13" lengthAdjust="spacing" textLength="105.1616" x="187" y="897.7329">provider runtime</text></g><!--link Workflow to Notes--><g class="link" data-entity-1="ent0003" data-entity-2="ent0008" data-link-type="dependency" data-source-line="38" id="lnk22"><path d="M463.06,863.8875 C515.58,842.2575 604.14,806.2075 681,776.9775 C705.06,767.8275 726.1772,760.139 748.9972,752.019" fill="none" id="Workflow-to-Notes" style="stroke:#181818;stroke-width:1;"/><polygon fill="#181818" points="754.65,750.0075,744.8298,749.2561,749.9393,751.6837,747.5117,756.7932,754.65,750.0075" style="stroke:#181818;stroke-width:1;"/><text fill="#000000" font-family="'Microsoft YaHei'" font-size="13" lengthAdjust="spacing" textLength="84.2778" x="565" y="778.7329">artifact writes</text></g><!--link Workflow to Topics--><g class="link" data-entity-1="ent0003" data-entity-2="ent0016" data-link-type="dependency" data-source-line="39" id="lnk23"><path d="M509.2,890.7075 C588.59,896.6975 706.26,903.9775 809,903.9775 C809,903.9775 809,903.9775 2574.5,903.9775 C2853.06,903.9775 3025.6722,515.1846 3062.8222,422.7646" fill="none" id="Workflow-to-Topics" style="stroke:#181818;stroke-width:1;"/><polygon fill="#181818" points="3065.06,417.1975,3057.9919,424.0563,3063.1952,421.8368,3065.4147,427.04,3065.06,417.1975" style="stroke:#181818;stroke-width:1;"/><text fill="#000000" font-family="'Microsoft YaHei'" font-size="13" lengthAdjust="spacing" textLength="91.8633" x="1767.5" y="899.7329">topic synthesis</text></g><!--link Zotero to Notes--><g class="link" data-entity-1="ent0007" data-entity-2="ent0008" data-link-type="dependency" data-source-line="41" id="lnk24"><path d="M473.58,730.9775 C539.63,730.9775 643.46,730.9775 719.36,730.9775" fill="none" id="Zotero-to-Notes" style="stroke:#181818;stroke-width:1;"/><polygon fill="#181818" points="725.36,730.9775,716.36,726.9775,720.36,730.9775,716.36,734.9775,725.36,730.9775" style="stroke:#181818;stroke-width:1;"/><text fill="#000000" font-family="'Microsoft YaHei'" font-size="13" lengthAdjust="spacing" textLength="75.8418" x="569.5" y="726.7329">stores notes</text></g><!--link Zotero to Registry--><g class="link" data-entity-1="ent0007" data-entity-2="ent0012" data-link-type="dependency" data-source-line="42" id="lnk25"><path d="M473.69,718.1275 C494.78,713.4775 518.95,708.3075 541,703.9775 C838.33,645.5475 1187.7982,587.3431 1343.8882,561.8931" fill="none" id="Zotero-to-Registry" style="stroke:#181818;stroke-width:1;"/><polygon fill="#181818" points="1349.81,560.9275,1340.2836,558.428,1344.8752,561.7321,1341.571,566.3237,1349.81,560.9275" style="stroke:#181818;stroke-width:1;"/><text fill="#000000" font-family="'Microsoft YaHei'" font-size="13" lengthAdjust="spacing" textLength="90.8223" x="765" y="632.7329">item metadata</text></g><!--link Notes to Registry--><g class="link" data-entity-1="ent0008" data-entity-2="ent0012" data-link-type="dependency" data-source-line="43" id="lnk26"><path d="M894.68,719.6575 C1006.03,704.5375 1189.86,679.3575 1197,676.9775 C1277.04,650.2475 1356.4341,599.4789 1398.2641,570.5689" fill="none" id="Notes-to-Registry" style="stroke:#181818;stroke-width:1;"/><polygon fill="#181818" points="1403.2,567.1575,1393.522,568.984,1399.0868,570.0003,1398.0704,575.5651,1403.2,567.1575" style="stroke:#181818;stroke-width:1;"/><text fill="#000000" font-family="'Microsoft YaHei'" font-size="13" lengthAdjust="spacing" textLength="250.7896" x="946" y="672.7329">digest / references / matching metadata</text></g><!--link Zotero to SourceFacade--><g class="link" data-entity-1="ent0007" data-entity-2="ent0011" data-link-type="dependency" data-source-line="44" id="lnk27"><path d="M473.63,746.2975 C526.74,759.8275 608.58,778.5175 681,785.9775 C946.59,813.3475 1577.36,764.5175 1635,743.9775 C1700.73,720.5575 1759.1334,668.8859 1789.1934,639.3059" fill="none" id="Zotero-to-SourceFacade" style="stroke:#181818;stroke-width:1;"/><polygon fill="#181818" points="1793.47,635.0975,1784.2495,638.559,1789.9061,638.6045,1789.8606,644.2612,1793.47,635.0975" style="stroke:#181818;stroke-width:1;"/><text fill="#000000" font-family="'Microsoft YaHei'" font-size="13" lengthAdjust="spacing" textLength="90.8223" x="765" y="781.7329">item metadata</text></g><!--link Notes to SourceFacade--><g class="link" data-entity-1="ent0008" data-entity-2="ent0011" data-link-type="dependency" data-source-line="45" id="lnk28"><path d="M894.6,736.7375 C911.29,737.6775 928.69,738.4875 945,738.9775 C1056.95,742.3175 1085.55,750.0175 1197,738.9775 C1396.37,719.2375 1621.0495,665.8237 1734.9195,636.5037" fill="none" id="Notes-to-SourceFacade" style="stroke:#181818;stroke-width:1;"/><polygon fill="#181818" points="1740.73,635.0075,1731.0169,633.3781,1735.8879,636.2543,1733.0117,641.1254,1740.73,635.0075" style="stroke:#181818;stroke-width:1;"/><text fill="#000000" font-family="'Microsoft YaHei'" font-size="13" lengthAdjust="spacing" textLength="227.957" x="957.5" y="734.7329">digest / references / citation analysis</text></g><!--link Bridge to SourceFacade--><g class="link" data-entity-1="ent0005" data-entity-2="ent0011" data-link-type="dependency" data-source-line="46" id="lnk29"><path d="M89.82,842.8375 C89.82,730.3275 105.1,159.9775 415,159.9775 C415,159.9775 415,159.9775 1072,159.9775 C1355.74,159.9775 1462.91,235.3775 1635,460.9775 C1671.49,508.8075 1621.03,551.9175 1665,592.9775 C1676.33,603.5575 1684.6582,608.7638 1699.5982,613.1038" fill="none" id="Bridge-to-SourceFacade" style="stroke:#181818;stroke-width:1;"/><polygon fill="#181818" points="1705.36,614.7775,1697.8331,608.4257,1700.5585,613.3827,1695.6014,616.1081,1705.36,614.7775" style="stroke:#181818;stroke-width:1;"/><text fill="#000000" font-family="'Microsoft YaHei'" font-size="13" lengthAdjust="spacing" textLength="130.0063" x="542" y="155.7329">topic workflow reads</text></g><!--link Foundation to Registry--><g class="link" data-entity-1="ent0010" data-entity-2="ent0012" data-link-type="dependency" data-source-line="48" id="lnk30"><path d="M824.9,399.1975 C846.8,427.7475 892.29,480.5275 945,503.9775 C1015.39,535.2875 1225.3715,544.1855 1343.9615,546.7955" fill="none" id="Foundation-to-Registry" style="stroke:#181818;stroke-width:1;stroke-dasharray:7,7;"/><polygon fill="#181818" points="1349.96,546.9275,1341.0502,542.7305,1344.9612,546.8175,1340.8742,550.7285,1349.96,546.9275" style="stroke:#181818;stroke-width:1;"/><text fill="#000000" font-family="'Microsoft YaHei'" font-size="13" lengthAdjust="spacing" textLength="115.4766" x="1013.5" y="499.7329">storage ownership</text></g><!--link Foundation to SourceFacade--><g class="link" data-entity-1="ent0010" data-entity-2="ent0011" data-link-type="dependency" data-source-line="49" id="lnk31"><path d="M842.22,399.0975 C868.6,414.2575 907.91,434.5675 945,444.9775 C1241.62,528.1875 1391.2,322.6575 1635,510.9775 C1665.71,534.6975 1635.01,568.3475 1665,592.9775 C1676.68,602.5675 1684.9194,607.3344 1699.5994,611.5144" fill="none" id="Foundation-to-SourceFacade" style="stroke:#181818;stroke-width:1;stroke-dasharray:7,7;"/><polygon fill="#181818" points="1705.37,613.1575,1697.8095,606.8458,1700.5611,611.7883,1695.6186,614.5399,1705.37,613.1575" style="stroke:#181818;stroke-width:1;"/><text fill="#000000" font-family="'Microsoft YaHei'" font-size="13" lengthAdjust="spacing" textLength="87.4707" x="1027.5" y="440.7329">service facade</text></g><!--link Foundation to Resolver--><g class="link" data-entity-1="ent0010" data-entity-2="ent0013" data-link-type="dependency" data-source-line="50" id="lnk32"><path d="M901.68,387.5375 C1053.59,400.5175 1369.04,428.7475 1635,460.9775 C1780.32,478.5875 1818.05,476.4475 1961,507.9775 C1979.38,512.0275 1993.3789,515.7839 2011.1589,521.1839" fill="none" id="Foundation-to-Resolver" style="stroke:#181818;stroke-width:1;stroke-dasharray:7,7;"/><polygon fill="#181818" points="2016.9,522.9275,2009.4508,516.4847,2012.1158,521.4745,2007.126,524.1395,2016.9,522.9275" style="stroke:#181818;stroke-width:1;"/></g><!--link Foundation to Graph--><g class="link" data-entity-1="ent0010" data-entity-2="ent0014" data-link-type="dependency" data-source-line="51" id="lnk33"><path d="M901.53,382.0975 C979.79,384.2075 1095.92,388.0075 1197,393.9775 C1550.45,414.8475 1637.74,435.1075 1991,458.9775 C2182.4,471.9075 2403.5461,482.438 2508.2861,487.148" fill="none" id="Foundation-to-Graph" style="stroke:#181818;stroke-width:1;stroke-dasharray:7,7;"/><polygon fill="#181818" points="2514.28,487.4175,2505.4688,483.0173,2509.285,487.1929,2505.1094,491.0092,2514.28,487.4175" style="stroke:#181818;stroke-width:1;"/></g><!--link Foundation to Tags--><g class="link" data-entity-1="ent0010" data-entity-2="ent0015" data-link-type="dependency" data-source-line="52" id="lnk34"><path d="M856.67,360.8775 C882.19,351.0875 914.85,339.9775 945,333.9775 C1475.38,228.4675 1619.38,256.0475 2160,268.9775 C2252.97,271.1975 2276.38,270.6275 2369,278.9775 C2416.92,283.2975 2464.9535,289.6972 2505.2635,295.6072" fill="none" id="Foundation-to-Tags" style="stroke:#181818;stroke-width:1;stroke-dasharray:7,7;"/><polygon fill="#181818" points="2511.2,296.4775,2502.8754,291.2143,2506.2529,295.7522,2501.7149,299.1297,2511.2,296.4775" style="stroke:#181818;stroke-width:1;"/></g><!--link Foundation to Topics--><g class="link" data-entity-1="ent0010" data-entity-2="ent0016" data-link-type="dependency" data-source-line="53" id="lnk35"><path d="M901.86,379.7375 C980.08,379.5875 1095.98,379.5075 1197,379.9775 C1893.82,383.2375 2730.2305,393.5502 2987.8905,396.8702" fill="none" id="Foundation-to-Topics" style="stroke:#181818;stroke-width:1;stroke-dasharray:7,7;"/><polygon fill="#181818" points="2993.89,396.9475,2984.9423,392.8319,2988.8904,396.8831,2984.8392,400.8312,2993.89,396.9475" style="stroke:#181818;stroke-width:1;"/></g><!--link Foundation to Concepts--><g class="link" data-entity-1="ent0010" data-entity-2="ent0017" data-link-type="dependency" data-source-line="54" id="lnk36"><path d="M837.88,360.8475 C864.01,343.1575 905.45,317.4775 945,302.9775 C1150.75,227.5175 1210.85,213.9775 1430,213.9775 C1430,213.9775 1430,213.9775 3074.5,213.9775 C3191.38,213.9775 3220.6,226.0575 3335,249.9775 C3344.78,252.0175 3349.3416,253.0483 3359.2016,255.7383" fill="none" id="Foundation-to-Concepts" style="stroke:#181818;stroke-width:1;stroke-dasharray:7,7;"/><polygon fill="#181818" points="3364.99,257.3175,3357.3601,251.0898,3360.1663,256.0015,3355.2545,258.8077,3364.99,257.3175" style="stroke:#181818;stroke-width:1;"/></g><!--link Registry to Resolver--><g class="link" data-entity-1="ent0012" data-entity-2="ent0013" data-link-type="dependency" data-source-line="56" id="lnk37"><path d="M1512.03,543.2675 C1556.97,540.8575 1614.09,538.1775 1665,536.9775 C1796.52,533.8775 1829.48,534.0775 1961,536.9775 C1971.75,537.2175 1977.0642,537.3519 1988.2242,537.7719" fill="none" id="Registry-to-Resolver" style="stroke:#181818;stroke-width:1;"/><polygon fill="#181818" points="1994.22,537.9975,1985.3768,533.6619,1989.2235,537.8095,1985.0759,541.6562,1994.22,537.9975" style="stroke:#181818;stroke-width:1;"/><text fill="#000000" font-family="'Microsoft YaHei'" font-size="13" lengthAdjust="spacing" textLength="119.7549" x="1753.5" y="530.7329">reference instances</text></g><!--link Resolver to Graph--><g class="link" data-entity-1="ent0013" data-entity-2="ent0014" data-link-type="dependency" data-source-line="57" id="lnk38"><path d="M2156.64,535.2375 C2215.46,530.1275 2297.25,522.6975 2369,514.9775 C2418.02,509.7075 2467.6087,503.5801 2508.2687,498.3701" fill="none" id="Resolver-to-Graph" style="stroke:#181818;stroke-width:1;"/><polygon fill="#181818" points="2514.22,497.6075,2504.7846,494.7838,2509.2605,498.243,2505.8014,502.719,2514.22,497.6075" style="stroke:#181818;stroke-width:1;"/><text fill="#000000" font-family="'Microsoft YaHei'" font-size="13" lengthAdjust="spacing" textLength="177.5376" x="2191" y="510.7329">matched / unresolved edges</text></g><!--link SourceFacade to Topics--><g class="link" data-entity-1="ent0011" data-entity-2="ent0016" data-link-type="dependency" data-source-line="58" id="lnk39"><path d="M1920.87,629.7675 C2132.68,652.0575 2615.41,677.3775 2964,501.9775 C3004.32,481.6875 3036.0161,446.0634 3054.7161,422.0234" fill="none" id="SourceFacade-to-Topics" style="stroke:#181818;stroke-width:1;"/><polygon fill="#181818" points="3058.4,417.2875,3049.7169,421.9354,3055.3301,421.2341,3056.0314,426.8473,3058.4,417.2875" style="stroke:#181818;stroke-width:1;"/><text fill="#000000" font-family="'Microsoft YaHei'" font-size="13" lengthAdjust="spacing" textLength="151.3408" x="2204" y="637.7329">primary workflow inputs</text></g><!--link Tags to Topics--><g class="link" data-entity-1="ent0015" data-entity-2="ent0016" data-link-type="dependency" data-source-line="59" id="lnk40"><path d="M2635.55,307.8575 C2713.09,311.4475 2850.47,321.8675 2964,351.9775 C2988.32,358.4275 3008.8846,366.7566 3029.3346,376.3166" fill="none" id="Tags-to-Topics" style="stroke:#181818;stroke-width:1;"/><polygon fill="#181818" points="3034.77,378.8575,3028.3109,371.4225,3030.2405,376.7401,3024.9229,378.6697,3034.77,378.8575" style="stroke:#181818;stroke-width:1;"/><text fill="#000000" font-family="'Microsoft YaHei'" font-size="13" lengthAdjust="spacing" textLength="134.9194" x="2804" y="315.7329">controlled vocabulary</text></g><!--link Topics to Concepts--><g class="link" data-entity-1="ent0016" data-entity-2="ent0017" data-link-type="dependency" data-source-line="60" id="lnk41"><path d="M3153.02,397.5475 C3207.01,394.2775 3278.81,383.8675 3335,353.9775 C3363.1,339.0275 3383.3888,315.0544 3397.0588,295.8644" fill="none" id="Topics-to-Concepts" style="stroke:#181818;stroke-width:1;"/><polygon fill="#181818" points="3400.54,290.9775,3392.0603,295.9871,3397.639,295.0499,3398.5762,300.6286,3400.54,290.9775" style="stroke:#181818;stroke-width:1;"/><text fill="#000000" font-family="'Microsoft YaHei'" font-size="13" lengthAdjust="spacing" textLength="116.3652" x="3201" y="349.7329">proposal ingestion</text></g><!--link Concepts to Topics--><g class="link" data-entity-1="ent0017" data-entity-2="ent0016" data-link-type="dependency" data-source-line="61" id="lnk42"><path d="M3364.94,279.9175 C3317.43,288.7775 3243.32,305.3275 3183,330.9775 C3153.05,343.7175 3126.6338,360.4744 3105.3838,375.3644" fill="none" id="Concepts-to-Topics" style="stroke:#181818;stroke-width:1;stroke-dasharray:7,7;"/><polygon fill="#181818" points="3100.47,378.8075,3110.136,376.9187,3104.5648,375.9383,3105.5452,370.367,3100.47,378.8075" style="stroke:#181818;stroke-width:1;"/><text fill="#000000" font-family="'Microsoft YaHei'" font-size="13" lengthAdjust="spacing" textLength="150.8838" x="3184" y="282.7329">optional overlay context</text></g><!--link Graph to Topics--><g class="link" data-entity-1="ent0014" data-entity-2="ent0016" data-link-type="dependency" data-source-line="62" id="lnk43"><path d="M2632.82,494.2575 C2710.37,498.0975 2850.83,498.5375 2964,462.9775 C2995.42,453.1075 3022.4313,436.0353 3043.4213,420.6453" fill="none" id="Graph-to-Topics" style="stroke:#181818;stroke-width:1;stroke-dasharray:7,7;"/><polygon fill="#181818" points="3048.26,417.0975,3038.6367,419.1934,3044.2277,420.054,3043.3671,425.645,3048.26,417.0975" style="stroke:#181818;stroke-width:1;"/><text fill="#000000" font-family="'Microsoft YaHei'" font-size="13" lengthAdjust="spacing" textLength="184.6533" x="2779" y="458.7329">optional metrics / diagnostics</text></g><!--link Jobs to Registry--><g class="link" data-entity-1="ent0018" data-entity-2="ent0012" data-link-type="dependency" data-source-line="64" id="lnk44"><path d="M915.19,568.3675 C925.26,569.0275 935.32,569.5775 945,569.9775 C1056.91,574.5675 1085.12,575.2475 1197,569.9775 C1247.94,567.5775 1298.9643,562.8884 1343.8343,558.0684" fill="none" id="Jobs-to-Registry" style="stroke:#181818;stroke-width:1;"/><polygon fill="#181818" points="1349.8,557.4275,1340.4243,554.4117,1344.8286,557.9616,1341.2787,562.3659,1349.8,557.4275" style="stroke:#181818;stroke-width:1;"/><text fill="#000000" font-family="'Microsoft YaHei'" font-size="13" lengthAdjust="spacing" textLength="163.5029" x="989.5" y="565.7329">incremental registry cache</text></g><!--link Jobs to Graph--><g class="link" data-entity-1="ent0018" data-entity-2="ent0014" data-link-type="dependency" data-source-line="65" id="lnk45"><path d="M911.38,578.0275 C922.68,579.6275 934.07,581.0075 945,581.9775 C1069.85,593.0575 1101.66,583.5375 1227,583.9775 C1434.34,584.7175 1953.61,597.7775 2160,577.9775 C2288.29,565.6675 2429.3669,530.2862 2508.6269,508.3762" fill="none" id="Jobs-to-Graph" style="stroke:#181818;stroke-width:1;"/><polygon fill="#181818" points="2514.41,506.7775,2504.6696,505.3201,2509.5907,508.1097,2506.8011,513.0309,2514.41,506.7775" style="stroke:#181818;stroke-width:1;"/><text fill="#000000" font-family="'Microsoft YaHei'" font-size="13" lengthAdjust="spacing" textLength="166.0483" x="1730" y="583.7329">structure / metrics / layout</text></g><!--link Jobs to Topics--><g class="link" data-entity-1="ent0018" data-entity-2="ent0016" data-link-type="dependency" data-source-line="66" id="lnk46"><path d="M838.22,539.8475 C864.27,522.7175 905.35,498.6975 945,487.9775 C972.09,480.6475 2935.97,406.4575 2964,404.9775 C2973.71,404.4675 2977.9113,404.2455 2988.0013,403.6255" fill="none" id="Jobs-to-Topics" style="stroke:#181818;stroke-width:1;stroke-dasharray:7,7;"/><polygon fill="#181818" points="2993.99,403.2575,2984.7616,399.8171,2988.9994,403.5642,2985.2523,407.802,2993.99,403.2575" style="stroke:#181818;stroke-width:1;"/><text fill="#000000" font-family="'Microsoft YaHei'" font-size="13" lengthAdjust="spacing" textLength="158.812" x="1996.5" y="432.7329">explicit source check only</text></g><!--link Bridge to Jobs--><g class="link" data-entity-1="ent0005" data-entity-2="ent0018" data-link-type="dependency" data-source-line="67" id="lnk47"><path d="M111.2,842.9675 C150.32,808.8275 237.68,736.8675 323,695.9775 C447.91,636.1175 597.8792,599.1474 698.8992,578.7074" fill="none" id="Bridge-to-Jobs" style="stroke:#181818;stroke-width:1;stroke-dasharray:7,7;"/><polygon fill="#181818" points="704.78,577.5175,695.1655,575.3818,699.8793,578.5091,696.752,583.2229,704.78,577.5175" style="stroke:#181818;stroke-width:1;"/><text fill="#000000" font-family="'Microsoft YaHei'" font-size="13" lengthAdjust="spacing" textLength="144.1997" x="344" y="615.7329">debug capabilities only</text></g><!--link Sync to Tags--><g class="link" data-entity-1="ent0019" data-entity-2="ent0015" data-link-type="dependency" data-source-line="69" id="lnk48"><path d="M2160.08,305.9775 C2259.47,305.9775 2416.99,305.9775 2505.32,305.9775" fill="none" id="Sync-to-Tags" style="stroke:#181818;stroke-width:1;stroke-dasharray:7,7;"/><polygon fill="#181818" points="2511.32,305.9775,2502.32,301.9775,2506.32,305.9775,2502.32,309.9775,2511.32,305.9775" style="stroke:#181818;stroke-width:1;"/><text fill="#000000" font-family="'Microsoft YaHei'" font-size="13" lengthAdjust="spacing" textLength="150.3696" x="2204.5" y="301.7329">canonical export/import</text></g><!--link Sync to Topics--><g class="link" data-entity-1="ent0019" data-entity-2="ent0016" data-link-type="dependency" data-source-line="70" id="lnk49"><path d="M2160.29,315.9875 C2225.35,323.5975 2317.84,334.0775 2399,341.9775 C2406.34,342.6875 2811.8805,376.3514 2987.9605,390.9614" fill="none" id="Sync-to-Topics" style="stroke:#181818;stroke-width:1;stroke-dasharray:7,7;"/><polygon fill="#181818" points="2993.94,391.4575,2985.3016,386.727,2988.9571,391.0441,2984.6401,394.6996,2993.94,391.4575" style="stroke:#181818;stroke-width:1;"/></g><!--link Sync to Concepts--><g class="link" data-entity-1="ent0019" data-entity-2="ent0017" data-link-type="dependency" data-source-line="71" id="lnk50"><path d="M2147.56,286.9375 C2161.54,283.7975 2176.16,280.9375 2190,278.9775 C2282.08,265.9375 2306.05,271.7375 2399,268.9775 C2747.31,258.6475 2834.54,261.9775 3183,259.9775 C3250.55,259.5875 3267.64,254.8275 3335,259.9775 C3344.7,260.7175 3349.0814,261.1214 3358.9314,262.5414" fill="none" id="Sync-to-Concepts" style="stroke:#181818;stroke-width:1;stroke-dasharray:7,7;"/><polygon fill="#181818" points="3364.87,263.3975,3356.5328,258.1543,3359.9212,262.6841,3355.3913,266.0724,3364.87,263.3975" style="stroke:#181818;stroke-width:1;"/></g><!--link SourceFacade to GMN51--><g class="link" data-entity-1="ent0011" data-entity-2="ent0052" data-link-type="association" data-source-line="74" id="lnk53"><path d="M1732.01,634.9975 C1643.68,650.3775 1505.04,657.7875 1431,575.4775 C1323.7,456.1975 1333.35,341.7875 1431,214.4775 C1485.02,144.0575 1581.86,118.6175 1664.52,110.6875" fill="none" id="SourceFacade-GMN51" style="stroke:#181818;stroke-width:1;stroke-dasharray:7,7;"/></g><!--link Graph to GMN57--><g class="link" data-entity-1="ent0014" data-entity-2="ent0058" data-link-type="association" data-source-line="88" id="lnk59"><path d="M2514.2,475.8675 C2443.91,455.6075 2329.98,410.8175 2279.5,324.4775 C2254.83,282.2675 2250.15,253.5775 2279.5,214.4775 C2308.14,176.3275 2352.83,154.4075 2398.81,142.0475" fill="none" id="Graph-GMN57" style="stroke:#181818;stroke-width:1;stroke-dasharray:7,7;"/></g><?plantuml-src VLRTRjn45BxtKuoIwtIHg5391LAJ41f8IvGK4A1UpDhZtL767cjcd6I5aDAVb59I6X62eYAea5eQYWX4L5Mo3V0mNM-sLtq5pfcnlLwtoirgVCutv_SxPzPm8nZvJ1gc95bQva9eqY1BdTYqcUQQpCY8yfZCi8J50OjzphGdM6Y8aKJnLjkGW2lc6ovZJo_pEA6AHgH9_UMMacaSJ4iX5J6AnXfKB3OLb2-ZHCOWMp8T20BDqBWbM0MYspIGgpnkaP0ANTK4BAIfCBCoDfTenCZOHUuhgIM4zYczmFXO1Pj0EBJ5o1SU8LDI1KoviCRVFalVR9v3QItWyV1SI4FV-zBpYijZsT7VsTs_-by_6loocTs_FqQe9Wk2cb2gY8opC7mh3AsBpp-HQZaKSXKhYIKb2qgkS71x1UyKMaIUdruWYsbiUCIi3hvHV45gGwOK3y1lWqpFprcb4up4rEzkzRhVPFi_5m4joLJv3E9_8mp2iowSlBlplAcewbXJJeJA6QRu2Wl8UMLuI7r3Be5AMv0zZRWRycAUTfXo7alPU1Y6JTPqJcUnc1Hv0HaiiaHgRcJkVQWhays30smPo2prQU3Auh9o0hooG1Ecm6gBQmENfgdVTi12XA155Z9W75HZaMafKlINW-1pXIa4JNFZWdnFqQHjrVQ4kikqHJwMFcscegWRYBHLoOJxE2dsKBdi5DQo1DU98HzCMKN-QLKNOQGCYod6rY3looPQcc7Dj6MXA40OLDO7nHnCYJ9mU7SD3rVoebjovXoPc7Ydf1MP93fjHXnlS9Wwc2eFQLR393abYNBqyqeT0cth0KMBPgmgZcGO0UL5c8HTW4NG1H4yBsTSrPA6xiCXjfogwCicJXBm49686GhSe9wxM8C4lCKqPgQAvcBf8chyDYw9ydB5GPKxfpYfmLxlo2_OGcCgEfXgfG4r2wuegqN15AC1LAOo5cVEZAI61S8XawinKxhDapgsPbypjSA1GA6RYbSCvnoloHsvQqBBwhhC4RacBLdibP6x3Zbl45PPBoIVGOfhhrGZraO0GDiqM3mDaiRA0GB2e9ZQ6ybqX6c9uX6kYRAiiE9J20Sp64Nwy30eAGGONIbdsClLY2nISRC0-uaAi8PTnxrKQeUr0A1CK0b02Ta8sh5Us9hnN5AlnmBPb5iM0QUj6BOT5jQpOr-VWDXNB88N4QwfGkpZTXl2Y_g1BlLDgd2535r0K38r3ZqI3bjB10V-4krU2B3fBnCPYqx1OOJRUy1-t4NWEA5DBhY1HzyXFRkI2ifWbMaiO-v3kCmkfmQtowg2SpGgluS4mar0cj8O6H4PZgvujrMX5jImHfe00HavkNUZT_XiyEzsjl6m_zF3mLUFlTDVZfV7zpoHApdyULbxldvL5Ko40_nx08aNSW6x0cZYHhun7FX6CUuJnRW_Nx_cPVlNUuTt-hj_rZe4dysKYm03pVOt-xUsJcu_xQzVnJlmtybklbUoBj-hrxrefEga38QqB070o-2_BVWh0YvEZhUpFtOnNmXkyEX6V-T9zk275zVtxBPheCz6kSdnHxyytlHw_znqYMGRUzd1UkKXNrhwy38WUaVt0V3YjuFizbw-paehWeVCx_Y2dPgUspQZRopfFxqrU79KpxKnN28sGhJxujdkOFy1-MYEP7SVPmSx9m-wMNSxkxdHwtwN7U_q3h_DDWvwtTzTiY0v-NxlvV6FNdPd1qYITN-jAh2ORPpR2QGooSqTNAicy3y0?></g></svg>